Patient4_TMGait_0pt3_03_right_19_EMG.mot
version=1
nRows=29
nColumns=33
inDegrees=no
endheader
time	1LAddLong	2LGlutMax	3LGlutMed	4LIliopsoas	5LSemiMemb	6LBicFemLong	7LRecFem	8LVastMed	9LVastLat	10LGasMed	11LTibAnt	12lTibPost	13LPeroneusLong	14LSol	15LExtDigLong	16LFlexDigLong	17RAddLong	18RGlutMax	19RGlutMed	20RIliopsoas	21RSemiMemb	22RBicFemLong	23RRecFem	24RVastMed	25RVastLat	26RGasMed	27RTibAnt	28RTibPost	29RPeroneusLong	30RSol	31RExtDigLong	32RFlexDigLong
36.97	0.063934	-0.061493	0.090485	0.037994	0.08194	0.054016	-0.056152	-0.002441	0.023346	0.014648	0.014648	-0.010376	0.046387	0.011597	-0.009918	0.04425	0.007782	-0.25772	-0.051575	0.22537	-0.019379	0.021057	-0.27679	0.053558	0.14969	-0.000916	0.007324	-0.002594	-0.10178	0.059662	-0.002594	-0.01236
36.971	0.050812	-0.070801	0.060425	0.009766	0.028381	0.070648	-0.053101	0.007782	0.08316	0.017548	0.007324	-0.015717	0.095825	0.016479	-0.000916	0.047913	0.016174	-0.2803	-0.093842	0.07019	-0.022125	0.011139	-0.2092	0.028839	0.12894	0.004883	0.12192	-0.000763	-0.028687	-0.002136	0.00061	-0.005188
36.972	0.042877	-0.06897	0.048828	-0.009308	-0.016632	0.058899	0.011139	0.011139	0.06134	0.031738	-0.002136	-0.018921	0.11215	0.009308	0.010071	0.048828	0.020905	-0.36667	-0.072937	-0.067902	-0.016327	0.013733	-0.13489	0.039673	0.068207	0.001373	0.12207	-0.007629	0.010986	0.012054	-0.003815	-0.011597
36.973	0.037079	-0.060272	-0.024109	-0.018158	0.002899	-0.022278	0.061646	0.012054	0.041504	0.034943	-0.025787	-0.019226	0.11475	0.010986	0.012512	0.065765	0.028229	-0.37415	-0.094147	-0.084229	-0.009308	0.026855	-0.10849	-0.029449	0.054016	-0.001373	0.082855	-0.006256	-0.10422	0.046234	0.001526	-0.027771
36.974	0.039825	-0.089874	-0.089264	-0.005646	0.011749	-0.070648	0.014648	0.004425	0.040588	0.033569	-0.015564	-0.019684	0.07782	-0.007782	0.005798	0.056	0.023499	-0.38788	-0.039063	0.080414	-0.037231	0.019684	-0.052032	-0.057678	0.04776	0.00061	0.10254	-0.006409	-0.16785	0.062561	-0.001526	-0.018005
36.975	0.036926	-0.096893	-0.058899	0.021515	0.021057	-0.10056	0.002594	0.011902	0.046082	0.041656	-0.005646	-0.030975	0.088043	0.011902	0.012512	0.059967	0.0354	-0.44601	-0.051422	0.11978	-0.11459	0.001984	-0.080719	-0.033875	0.046539	-0.003357	0.10757	-0.001984	-0.12253	0.046692	-0.001678	-0.000916
36.976	0.024872	-0.16373	-0.1062	0.032654	0.062561	-0.062256	-0.005951	0.01297	0.04776	0.032196	0.014954	-0.028992	0.094757	0.029297	0.006714	0.073242	0.004578	-0.4277	-0.069733	0.077209	-0.13489	0.009766	-0.079651	0.034637	0.062103	-0.001373	0.075989	-0.000916	-0.092316	0.038147	-0.001526	-0.014038
36.977	0.012207	-0.15762	0.10986	0.010376	0.037384	0.022278	-0.007782	0.022125	0.015869	0.037231	0.006561	-0.023041	0.11047	0.01236	0.001526	0.053711	-0.006409	-0.54855	-0.073242	0.016022	-0.015869	0.006104	-0.081329	-0.022888	0.058594	0.000916	0.087585	-0.000305	-0.19272	-0.027466	-0.002747	-0.005035
36.978	-0.006714	-0.1648	0.033722	0.016785	0.008087	0.10773	-0.00473	0.019073	0.000153	0.031891	0.030823	-0.034943	0.10941	-0.001068	-0.021973	0.036926	0.001221	-0.55908	-0.27618	-0.005341	0.11078	-0.039825	-0.079956	0.032196	0.053864	-0.000458	0.083008	0.001678	-0.2153	-0.065613	0.001831	-0.014343
36.979	-0.014648	-0.11795	-0.026093	0.008698	-0.014343	0.11612	-0.051117	0.020447	0.020447	0.044708	0.028839	-0.019684	0.11002	0.000458	-0.037231	0.058289	-0.001221	-0.53787	-0.22369	0.014648	0.034485	-0.002594	-0.034943	0.13687	0.059204	-0.002441	0.10941	-0.002136	-0.27649	-0.072784	0.000153	-0.006866
36.98	-0.02182	-0.12894	0.023193	-0.003662	-0.008392	0.090942	-0.017548	0.017242	0.022278	0.027771	0.009308	-0.010071	0.1355	-0.01709	-0.035553	0.05188	0.011749	-0.57159	0.018463	0.007935	-0.016327	0.062561	-0.042725	0.10361	0.065765	0.002594	0.06546	-0.001373	-0.16647	-0.052338	-0.004578	-0.002594
36.981	-0.029755	-0.15686	0.034485	-0.000153	0.018768	0.11261	-0.020905	0.020752	0.018921	0.012817	-0.000916	-0.013275	0.14847	0.007019	-0.00351	0.035706	0.014191	-0.64072	-0.008392	-0.019531	-0.052185	0.066223	-0.053253	0.12894	0.065765	0.007172	0.00824	-0.005493	0.094147	-0.047913	-0.002899	-0.004272
36.982	-0.025787	-0.19623	0.087433	0.002594	-0.016174	0.10025	-0.010223	0.028687	0.020447	0.00885	0.000763	-0.013428	0.14694	-0.004272	0.001373	0.033112	0.00946	-0.63126	-0.13397	-0.04715	-0.047607	0.074921	-0.095673	0.025177	0.055542	0.006866	0.029449	-0.006104	0.22003	-0.11032	-0.002594	-0.009308
36.983	-0.042114	-0.17716	0.013733	0.002747	-0.015106	0.027924	-0.00946	0.028839	0.009003	0.014343	0.014343	-0.005188	0.12543	-0.01709	0.03891	0.029144	0.005341	-0.63385	-0.22659	-0.037231	-0.11368	0.1297	-0.15976	-0.103	0.065002	-0.001678	0.053101	-0.001373	0.19318	-0.08606	0.001831	0.003967
36.984	-0.037231	-0.1535	-0.011444	0.006256	0.018005	0.013123	0.006256	0.024872	0.009613	0.001373	0.014954	0.001984	0.075073	0.007782	0.075378	0.023804	0.019379	-0.58243	-0.26276	-0.035095	0.037384	0.035553	-0.13641	-0.20248	0.065613	-0.004883	0.068207	-0.00412	0.087891	-0.077667	0.002747	-0.007172
36.985	-0.046692	-0.15915	-0.021515	-0.001831	0.037384	0.078583	-0.013428	0.002747	0.019226	0.009155	0.003052	0.005493	0.086823	-0.007935	0.054321	0.018005	0.019226	-0.58746	0.298	-0.011444	0.023193	-0.022125	-0.10132	-0.18326	0.061493	-0.00061	0.06073	-0.004425	0.029297	-0.031891	-0.003967	-0.008698
36.986	-0.019836	-0.17349	-0.072937	-0.00061	-0.002289	0.065308	-0.011749	-0.007324	0.038452	0.015259	0.016174	0.004578	0.10452	-0.017395	0.036469	0.025177	0.006714	-0.63965	0.32196	-0.036621	-0.27374	0.046082	-0.1387	-0.12344	0.080872	-0.015869	0.035706	-0.004578	0.021362	0.009766	0.000763	-0.009003
36.987	0.00885	-0.18326	-0.1207	0.013733	-0.075836	-0.001068	-0.010681	-0.023346	0.050964	0.010681	0.012817	0.010223	0.16296	0.007477	0.014954	0.010071	0.003052	-0.63294	0.19562	-0.034027	-0.1358	0.058441	-0.04364	-0.19623	0.03006	-0.019379	0.006409	-0.010986	0.07019	0.002136	-0.003662	-0.012054
36.988	0.025177	-0.18875	-0.15701	0.010681	-0.10742	-0.038605	0.040894	-0.018311	0.02594	-0.015564	0.00412	0.013275	0.13779	0.021973	-0.003204	0.021515	-0.005798	-0.63675	0.19882	-0.047607	0.10101	0.084076	-0.079041	-0.16953	0.028076	-0.020905	0.001373	-0.007477	0.12894	0.010071	0.003815	-0.010681
36.989	0.026703	-0.18021	0.030975	0.013428	0.012054	-0.16327	0.075989	-0.005646	0.001831	-0.039978	0.022736	0.019684	-0.23605	0.016327	-0.000916	0.015564	-0.01297	-0.60623	0.069733	-0.00473	0.1474	0.045166	-0.051117	-0.08728	0.032501	-0.018005	0.010529	-0.005341	0.18799	0.065155	-0.001831	-0.011292
36.99	0.012054	-0.22675	0.13458	-0.00473	0.05188	-0.2652	0.079193	-0.006561	-0.036469	-0.066376	0.011292	0.027008	-0.22553	0.028839	-0.011902	-0.007019	-0.013428	-0.60379	0.046234	0.025024	0.13565	-0.027161	-0.063477	-0.054474	0.040588	-0.01297	0.002441	-0.004425	0.14923	0.22614	-0.001221	-0.011139
36.991	-0.002899	-0.24139	0.103	-0.003662	0.005798	-0.22385	0.11337	0.002594	-0.076447	-0.14221	-0.000305	0.030518	0.29007	0.043945	0.005798	-0.006866	0.00946	-0.61813	-0.01709	-0.007935	0.083923	-0.033569	-0.071411	-0.022583	0.086517	0.007782	0.019836	-0.001068	0.045776	0.24048	0.001221	-0.017548
36.992	-0.012054	-0.25055	0.039825	0.025177	-0.006561	-0.11246	0.094452	0.003815	-0.057831	-0.16693	-0.005798	0.033417	0.46219	0.047607	0.017548	-0.010376	0.014038	-0.5571	-0.023193	-0.017242	0.01709	0.029755	-0.042419	-0.003815	0.14038	0.009308	0.045776	-0.001221	-0.063171	0.13901	-0.001831	-0.012817
36.993	-0.003815	-0.25925	0.046692	0.00824	-0.034943	-0.10407	0.074005	0.000763	-0.059662	-0.047607	0.000305	0.027771	0.26886	0.073853	0.032806	-0.006561	0.019989	-0.5275	0.006409	-0.00351	-0.002747	0.065613	-0.061493	0.023651	0.1471	0.003967	0.063782	-0.000458	-0.10254	0.13733	-0.001831	-0.002899
36.994	0.016174	-0.17685	0.03067	0.00412	0.041504	-0.11398	0.071716	0.000916	-0.025635	0.079651	0.011902	0.0354	0.58899	0.00473	-0.03891	-0.009003	0.019531	-0.44983	-0.072327	0.072327	0.005798	0.020599	-0.048676	-0.036163	0.11765	0.002747	0.068359	0.004425	-0.13733	0.29907	0.00061	-0.010834
36.995	0.019073	-0.21576	0.026398	0.004272	0.068817	-0.08255	-0.061951	-0.002441	0.04425	0.10635	0.001373	0.037689	0.25299	-0.041199	-0.057526	-0.009766	0.014954	-0.46646	-0.070953	0.073853	-0.006866	0.024719	0.01236	-0.020142	0.092316	0.007629	0.09903	-0.002289	-0.16464	0.15243	-0.002441	-0.007477
36.996	0.016327	-0.24643	0	0.007629	0.002899	-0.050049	-0.047913	0.001831	0.16129	0.089417	-0.00061	0.033569	-0.13596	-0.011444	-0.027161	-0.00885	-0.000305	-0.41718	-0.038605	0.024872	-0.02594	0.025635	-0.028381	-0.072937	0.055695	0.001373	0.058746	-0.000916	-0.15396	-0.021667	-0.004578	-0.002441
36.997	0.019684	-0.19989	-0.002441	-0.009003	0.032654	0.005188	0.030823	-0.00061	0.21088	0.094452	0.012817	0.031433	-0.34103	-0.027618	-0.045319	0.005188	0.011902	-0.39719	-0.13748	-0.00824	-0.034332	0.011902	-0.14099	-0.070648	-0.048981	0.001678	0.055542	-0.005798	-0.21088	-0.12405	-0.003357	-0.006561
36.998	0.074158	-0.1445	-0.059814	0.009155	0.037231	0.07309	0.0914	0.001373	0.1593	0.084839	0.022583	0.037384	-0.43564	-0.010223	-0.033569	-0.006561	0.019989	-0.35477	-0.001373	0.037231	-0.021057	0.002441	-0.25482	-0.04715	-0.19119	-0.002136	0.037079	-0.004578	-0.20706	-0.24353	-0.001984	-0.000305
